<svg width="15" height="27" viewBox="0 0 15 27" fill="none" xmlns="http://www.w3.org/2000/svg">
<path fill-rule="evenodd" clip-rule="evenodd" d="M12.2904 9.38293C12.4158 9.51746 12.5669 9.62536 12.7349 9.7002C12.9028 9.77503 13.0842 9.81527 13.268 9.81852C13.4519 9.82176 13.6345 9.78794 13.805 9.71908C13.9755 9.65021 14.1303 9.54771 14.2604 9.41769C14.3904 9.28767 14.4929 9.13279 14.5618 8.9623C14.6306 8.7918 14.6644 8.60918 14.6612 8.42533C14.658 8.24148 14.6177 8.06017 14.5429 7.89221C14.468 7.72425 14.3601 7.57309 14.2256 7.44773L8.29222 1.51252L7.32462 0.544922L6.35702 1.51252L0.423635 7.44591C0.174092 7.70403 0.0359153 8.04984 0.0388646 8.40886C0.0418139 8.76787 0.185654 9.11136 0.439404 9.36535C0.693154 9.61934 1.03651 9.76351 1.39552 9.76679C1.75453 9.77008 2.10047 9.63223 2.35883 9.38293L5.95538 5.78639V24.7349C5.95538 25.098 6.09964 25.4463 6.35642 25.7031C6.6132 25.9599 6.96148 26.1041 7.32462 26.1041C7.68777 26.1041 8.03604 25.9599 8.29282 25.7031C8.54961 25.4463 8.69387 25.098 8.69387 24.7349V5.78639L12.2904 9.38293Z" fill="white"/>
</svg>
